<svg width="685.2950439453125px" height="122.021240234375px" xmlns="http://www.w3.org/2000/svg" viewBox="-92.64752197265625 13.9893798828125 685.2950439453125 122.021240234375" style="background: rgba(0, 0, 0, 0);" preserveAspectRatio="xMidYMid"><defs><filter id="editing-extrusion" x="-100%" y="-100%" width="300%" height="300%"><feFlood result="color1" flood-color="#444"></feFlood><feConvolveMatrix order="8,8" divisor="1" kernelMatrix="1 0 0 0 0 0 0 0 0 1 0 0 0 0 0 0 0 0 1 0 0 0 0 0 0 0 0 1 0 0 0 0 0 0 0 0 1 0 0 0 0 0 0 0 0 1 0 0 0 0 0 0 0 0 1 0 0 0 0 0 0 0 0 1" in="SourceAlpha" result="extrude"></feConvolveMatrix><feComposite in="color1" in2="extrude" result="comp-extrude" operator="in"></feComposite><feOffset dx="4" dy="4" in="comp-extrude" result="offset-extrude"></feOffset><feMerge><feMergeNode in="offset-extrude"></feMergeNode><feMergeNode in="SourceGraphic"></feMergeNode></feMerge></filter></defs><g filter="url(#editing-extrusion)"><g transform="translate(5.715001195669174, 98.9921875)"><path d="M24.96-4.80L24.96-4.80L24.96-4.80Q24.96-9.28 26.75-18.24L26.75-18.24L17.28-18.24L13.76 0L0.38 0L8.51-42.24L22.02-42.24L18.30-23.36L27.78-23.36L31.30-42.24L44.80-42.24L44.80-42.24Q43.90-37.50 42.75-32.19L42.75-32.19L40.58-21.76L40.58-21.76Q38.14-9.60 38.14-4.29L38.14-4.29L38.14-4.29Q38.14-2.11 38.85-0.90L38.85-0.90L38.85-0.90Q35.65 1.28 31.90 1.28L31.90 1.28L31.90 1.28Q28.16 1.28 26.56-0.51L26.56-0.51L26.56-0.51Q24.96-2.30 24.96-4.80ZM60.29 1.28L60.29 1.28L60.29 1.28Q46.21 1.28 46.21-11.97L46.21-11.97L46.21-11.97Q46.21-21.38 51.39-27.46L51.39-27.46L51.39-27.46Q56.90-33.92 66.43-33.92L66.43-33.92L66.43-33.92Q73.34-33.92 76.86-30.72L76.86-30.72L76.86-30.72Q80.38-27.52 80.38-20.80L80.38-20.80L80.38-20.80Q80.38-10.56 74.88-4.61L74.88-4.61L74.88-4.61Q69.50 1.28 60.29 1.28ZM61.95-26.56L61.95-26.56L61.95-26.56Q61.18-24.83 60.58-22.24L60.58-22.24L60.58-22.24Q59.97-19.65 59.20-15.55L59.20-15.55L59.20-15.55Q58.43-11.46 58.43-6.40L58.43-6.40L58.43-6.40Q58.43-4.74 58.98-3.65L58.98-3.65L58.98-3.65Q59.52-2.56 60.99-2.56L60.99-2.56L60.99-2.56Q62.46-2.56 63.39-3.26L63.39-3.26L63.39-3.26Q64.32-3.97 65.02-5.63L65.02-5.63L65.02-5.63Q66.30-8.58 67.33-14.05L67.33-14.05L67.33-14.05Q68.35-19.52 68.45-21.89L68.45-21.89L68.45-21.89Q68.54-24.26 68.54-26.02L68.54-26.02L68.54-26.02Q68.54-27.78 68.03-28.93L68.03-28.93L68.03-28.93Q67.52-30.08 66.08-30.08L66.08-30.08L66.08-30.08Q64.64-30.08 63.68-29.18L63.68-29.18L63.68-29.18Q62.72-28.29 61.95-26.56ZM130.24 1.28L130.24 1.28L130.24 1.28Q122.50 1.28 122.50-4.74L122.50-4.74L122.50-4.74Q122.50-7.36 123.62-12.45L123.62-12.45L123.62-12.45Q124.74-17.54 125.12-19.58L125.12-19.58L125.12-19.58Q126.02-24.26 126.02-25.73L126.02-25.73L126.02-25.73Q126.02-28.99 123.58-28.99L123.58-28.99L123.58-28.99Q121.98-28.99 120.45-26.78L120.45-26.78L120.45-26.78Q118.91-24.58 118.21-20.16L118.21-20.16L114.24 0L101.76 1.28L105.22-16.13L105.22-16.13Q105.79-19.01 106.30-22.27L106.30-22.27L106.30-22.27Q106.82-25.54 106.82-26.05L106.82-26.05L106.82-26.05Q106.82-28.99 104.64-28.99L104.64-28.99L104.64-28.99Q103.17-28.99 101.57-26.82L101.57-26.82L101.57-26.82Q99.97-24.64 99.07-20.16L99.07-20.16L95.17 0L82.56 1.28L89.28-32.64L99.71-33.92L98.62-27.46L98.62-27.46Q100.29-30.91 103.36-32.42L103.36-32.42L103.36-32.42Q106.43-33.92 111.23-33.92L111.23-33.92L111.23-33.92Q113.98-33.92 115.78-32.58L115.78-32.58L115.78-32.58Q117.57-31.23 118.14-29.06L118.14-29.06L118.14-29.06Q119.23-31.30 122.02-32.61L122.02-32.61L122.02-32.61Q124.80-33.92 128.22-33.92L128.22-33.92L128.22-33.92Q131.65-33.92 133.34-33.18L133.34-33.18L133.34-33.18Q135.04-32.45 136.06-31.23L136.06-31.23L136.06-31.23Q137.79-28.99 137.79-24.90L137.79-24.90L137.79-24.90Q137.79-20.86 136.06-12.48L136.06-12.48L136.06-12.48Q135.17-8.38 135.17-6.88L135.17-6.88L135.17-6.88Q135.17-5.38 136.03-4.48L136.03-4.48L136.03-4.48Q136.90-3.58 138.18-3.46L138.18-3.46L138.18-3.46Q137.54-1.28 135.33 0L135.33 0L135.33 0Q133.12 1.28 130.24 1.28ZM169.02-10.82L169.02-10.82L169.02-10.82Q170.62-9.73 170.62-7.33L170.62-7.33L170.62-7.33Q170.62-4.93 169.41-3.39L169.41-3.39L169.41-3.39Q168.19-1.86 166.21-0.83L166.21-0.83L166.21-0.83Q162.11 1.28 157.70 1.28L157.70 1.28L157.70 1.28Q153.28 1.28 150.69 0.32L150.69 0.32L150.69 0.32Q148.10-0.64 146.37-2.43L146.37-2.43L146.37-2.43Q142.98-5.82 142.98-12.03L142.98-12.03L142.98-12.03Q142.98-21.70 148.22-27.58L148.22-27.58L148.22-27.58Q153.86-33.92 163.65-33.92L163.65-33.92L163.65-33.92Q169.73-33.92 172.74-31.36L172.74-31.36L172.74-31.36Q174.98-29.44 174.98-26.30L174.98-26.30L174.98-26.30Q174.98-15.04 155.52-15.04L155.52-15.04L155.52-15.04Q155.26-13.38 155.26-11.97L155.26-11.97L155.26-11.97Q155.26-9.02 156.58-7.90L156.58-7.90L156.58-7.90Q157.89-6.78 160.32-6.78L160.32-6.78L160.32-6.78Q162.75-6.78 165.34-7.90L165.34-7.90L165.34-7.90Q167.94-9.02 169.02-10.82ZM155.97-17.79L155.97-17.79L155.97-17.79Q160.51-17.79 163.14-20.61L163.14-20.61L163.14-20.61Q165.76-23.30 165.76-27.58L165.76-27.58L165.76-27.58Q165.76-29.06 165.22-29.86L165.22-29.86L165.22-29.86Q164.67-30.66 163.58-30.66L163.58-30.66L163.58-30.66Q162.50-30.66 161.57-30.24L161.57-30.24L161.57-30.24Q160.64-29.82 159.68-28.42L159.68-28.42L159.68-28.42Q157.31-25.22 155.97-17.79ZM219.46-33.92L219.46-33.92L219.46-33.92Q214.27-33.92 210.50-35.65L210.50-35.65L208.45-25.28L220.80-25.28L220.80-25.28Q220.80-21.89 219.10-19.74L219.10-19.74L219.10-19.74Q217.41-17.60 214.34-17.60L214.34-17.60L214.34-17.60Q211.01-17.60 207.94-18.82L207.94-18.82L207.94-18.82Q207.30-19.07 207.23-19.14L207.23-19.14L203.58 0L189.63 0L197.76-42.24L226.30-42.24L226.30-42.24Q226.30-38.34 224.48-36.13L224.48-36.13L224.48-36.13Q222.66-33.92 219.46-33.92ZM244.86-2.69L244.86-2.69L244.86-2.69Q241.79 1.28 234.18 1.28L234.18 1.28L234.18 1.28Q230.21 1.28 227.33-1.12L227.33-1.12L227.33-1.12Q224.45-3.52 224.45-6.98L224.45-6.98L224.45-6.98Q224.45-8.90 224.64-9.86L224.64-9.86L228.93-32.64L241.92-33.92L237.25-9.22L237.25-9.22Q236.99-7.81 236.99-6.98L236.99-6.98L236.99-6.98Q236.99-3.26 239.23-3.26L239.23-3.26L239.23-3.26Q241.73-3.26 243.52-6.66L243.52-6.66L243.52-6.66Q244.10-7.74 244.35-9.15L244.35-9.15L248.90-32.64L261.50-33.92L256.77-8.96L256.77-8.96Q256.58-8 256.58-6.98L256.58-6.98L256.58-6.98Q256.58-5.95 257.15-4.83L257.15-4.83L257.15-4.83Q257.73-3.71 259.58-3.46L259.58-3.46L259.58-3.46Q259.20-1.92 257.86-0.90L257.86-0.90L257.86-0.90Q255.04 1.28 252.00 1.28L252.00 1.28L252.00 1.28Q248.96 1.28 247.17 0.19L247.17 0.19L247.17 0.19Q245.38-0.90 244.86-2.69ZM284.99-17.98L284.99-17.98L284.99-17.98Q287.30-22.08 287.30-26.24L287.30-26.24L287.30-26.24Q287.30-28.99 285.31-28.99L285.31-28.99L285.31-28.99Q283.78-28.99 282.18-26.37L282.18-26.37L282.18-26.37Q280.51-23.74 280-20.35L280-20.35L276.67 0L263.42 1.28L269.95-32.64L280.51-33.92L279.36-27.46L279.36-27.46Q282.50-33.92 289.54-33.92L289.54-33.92L289.54-33.92Q293.25-33.92 295.26-32L295.26-32L295.26-32Q297.28-30.08 297.28-26.14L297.28-26.14L297.28-26.14Q297.28-22.21 294.69-19.71L294.69-19.71L294.69-19.71Q292.10-17.22 287.68-17.22L287.68-17.22L287.68-17.22Q285.76-17.22 284.99-17.98ZM325.38 1.28L325.38 1.28L325.38 1.28Q317.63 1.28 317.63-4.74L317.63-4.74L317.63-4.74Q317.70-6.40 318.21-9.22L318.21-9.22L319.36-15.10L319.36-15.10Q321.09-23.42 321.09-25.28L321.09-25.28L321.09-25.28Q321.09-28.99 318.91-28.99L318.91-28.99L318.91-28.99Q315.26-28.99 313.34-19.46L313.34-19.46L309.57 0L296.70 1.28L303.36-32.70L313.86-33.92L312.83-27.65L312.83-27.65Q315.84-33.92 325.06-33.92L325.06-33.92L325.06-33.92Q329.54-33.92 331.42-32.03L331.42-32.03L331.42-32.03Q333.31-30.14 333.31-25.92L333.31-25.92L333.31-25.92Q333.31-21.95 331.26-12.67L331.26-12.67L331.26-12.67Q330.30-8.51 330.30-6.94L330.30-6.94L330.30-6.94Q330.30-5.38 331.17-4.48L331.17-4.48L331.17-4.48Q332.03-3.58 333.31-3.46L333.31-3.46L333.31-3.46Q332.67-1.28 330.46 0L330.46 0L330.46 0Q328.26 1.28 325.38 1.28ZM353.79-3.52L353.79-3.52L353.79-3.52Q351.81 1.28 345.47 1.28L345.47 1.28L345.47 1.28Q342.21 1.28 340.16-0.96L340.16-0.96L340.16-0.96Q338.43-2.94 338.43-4.93L338.43-4.93L338.43-4.93Q338.43-10.11 340.80-20.22L340.80-20.22L343.17-32.64L356.16-33.92L352.26-13.70L352.26-13.70Q351.17-8.96 351.17-7.30L351.17-7.30L351.17-7.30Q351.17-3.65 353.79-3.52ZM344.32-41.54L344.32-41.54L344.32-41.54Q344.32-44.03 346.40-45.38L346.40-45.38L346.40-45.38Q348.48-46.72 351.49-46.72L351.49-46.72L351.49-46.72Q354.50-46.72 356.32-45.38L356.32-45.38L356.32-45.38Q358.14-44.03 358.14-41.54L358.14-41.54L358.14-41.54Q358.14-39.04 356.13-37.76L356.13-37.76L356.13-37.76Q354.11-36.48 351.10-36.48L351.10-36.48L351.10-36.48Q348.10-36.48 346.21-37.76L346.21-37.76L346.21-37.76Q344.32-39.04 344.32-41.54ZM360.26-6.40L360.26-6.40L360.26-6.40Q360.26-8.13 361.15-12.48L361.15-12.48L364.54-29.76L360.77-29.76L361.02-31.68L361.02-31.68Q368.70-33.98 376.13-39.62L376.13-39.62L379.20-39.62L377.66-32.64L382.66-32.64L382.08-29.76L377.15-29.76L373.89-12.48L373.89-12.48Q373.06-8.51 373.06-7.17L373.06-7.17L373.06-7.17Q373.06-4.10 375.74-3.46L375.74-3.46L375.74-3.46Q375.10-1.28 372.80 0L372.80 0L372.80 0Q370.50 1.28 367.23 1.28L367.23 1.28L367.23 1.28Q363.97 1.28 362.11-0.77L362.11-0.77L362.11-0.77Q360.26-2.82 360.26-6.40ZM402.88-2.69L402.88-2.69L402.88-2.69Q399.81 1.28 392.19 1.28L392.19 1.28L392.19 1.28Q388.22 1.28 385.34-1.12L385.34-1.12L385.34-1.12Q382.46-3.52 382.46-6.98L382.46-6.98L382.46-6.98Q382.46-8.90 382.66-9.86L382.66-9.86L386.94-32.64L399.94-33.92L395.26-9.22L395.26-9.22Q395.01-7.81 395.01-6.98L395.01-6.98L395.01-6.98Q395.01-3.26 397.25-3.26L397.25-3.26L397.25-3.26Q399.74-3.26 401.54-6.66L401.54-6.66L401.54-6.66Q402.11-7.74 402.37-9.15L402.37-9.15L406.91-32.64L419.52-33.92L414.78-8.96L414.78-8.96Q414.59-8 414.59-6.98L414.59-6.98L414.59-6.98Q414.59-5.95 415.17-4.83L415.17-4.83L415.17-4.83Q415.74-3.71 417.60-3.46L417.60-3.46L417.60-3.46Q417.22-1.92 415.87-0.90L415.87-0.90L415.87-0.90Q413.06 1.28 410.02 1.28L410.02 1.28L410.02 1.28Q406.98 1.28 405.18 0.19L405.18 0.19L405.18 0.19Q403.39-0.90 402.88-2.69ZM443.01-17.98L443.01-17.98L443.01-17.98Q445.31-22.08 445.31-26.24L445.31-26.24L445.31-26.24Q445.31-28.99 443.33-28.99L443.33-28.99L443.33-28.99Q441.79-28.99 440.19-26.37L440.19-26.37L440.19-26.37Q438.53-23.74 438.02-20.35L438.02-20.35L434.69 0L421.44 1.28L427.97-32.64L438.53-33.92L437.38-27.46L437.38-27.46Q440.51-33.92 447.55-33.92L447.55-33.92L447.55-33.92Q451.26-33.92 453.28-32L453.28-32L453.28-32Q455.30-30.08 455.30-26.14L455.30-26.14L455.30-26.14Q455.30-22.21 452.70-19.71L452.70-19.71L452.70-19.71Q450.11-17.22 445.70-17.22L445.70-17.22L445.70-17.22Q443.78-17.22 443.01-17.98ZM482.24-10.82L482.24-10.82L482.24-10.82Q483.84-9.73 483.84-7.33L483.84-7.33L483.84-7.33Q483.84-4.93 482.62-3.39L482.62-3.39L482.62-3.39Q481.41-1.86 479.42-0.83L479.42-0.83L479.42-0.83Q475.33 1.28 470.91 1.28L470.91 1.28L470.91 1.28Q466.50 1.28 463.90 0.32L463.90 0.32L463.90 0.32Q461.31-0.64 459.58-2.43L459.58-2.43L459.58-2.43Q456.19-5.82 456.19-12.03L456.19-12.03L456.19-12.03Q456.19-21.70 461.44-27.58L461.44-27.58L461.44-27.58Q467.07-33.92 476.86-33.92L476.86-33.92L476.86-33.92Q482.94-33.92 485.95-31.36L485.95-31.36L485.95-31.36Q488.19-29.44 488.19-26.30L488.19-26.30L488.19-26.30Q488.19-15.04 468.74-15.04L468.74-15.04L468.74-15.04Q468.48-13.38 468.48-11.97L468.48-11.97L468.48-11.97Q468.48-9.02 469.79-7.90L469.79-7.90L469.79-7.90Q471.10-6.78 473.54-6.78L473.54-6.78L473.54-6.78Q475.97-6.78 478.56-7.90L478.56-7.90L478.56-7.90Q481.15-9.02 482.24-10.82ZM469.18-17.79L469.18-17.79L469.18-17.79Q473.73-17.79 476.35-20.61L476.35-20.61L476.35-20.61Q478.98-23.30 478.98-27.58L478.98-27.58L478.98-27.58Q478.98-29.06 478.43-29.86L478.43-29.86L478.43-29.86Q477.89-30.66 476.80-30.66L476.80-30.66L476.80-30.66Q475.71-30.66 474.78-30.24L474.78-30.24L474.78-30.24Q473.86-29.82 472.90-28.42L472.90-28.42L472.90-28.42Q470.53-25.22 469.18-17.79Z" fill="#ccc"></path></g></g><style>text {
  font-size: 64px;
  font-family: Arial Black;
  dominant-baseline: central;
  text-anchor: middle;
}</style></svg>